<svg width="30" height="36" fill="none" xmlns="http://www.w3.org/2000/svg"><path d="M25.573 5.122H7.225a2.17 2.17 0 00-2.18 2.163v24.302a2.17 2.17 0 002.18 2.163h18.348a2.17 2.17 0 002.179-2.163V7.285a2.17 2.17 0 00-2.179-2.163z" fill="#D3C9BE"/><path d="M1.49 3.7v27.204c0 .398-.343.74-.745.74a.756.756 0 01-.745-.74V3.699C0 1.65 1.663 0 3.727 0h21.215c.401 0 .745.341.745.74 0 .398-.344.74-.745.74H3.67c-1.204.057-2.18 1.024-2.18 2.22zM29.3 31.586c0 2.049-1.663 3.7-3.727 3.7H7.225c-1.72 0-3.154-1.139-3.555-2.676a.644.644 0 01-.172-.455V7.285c0-2.049 1.662-3.7 3.727-3.7h18.347c2.065 0 3.728 1.651 3.728 3.7v24.302z" fill="#D3C9BE"/></svg>