<svg width="26" height="27" fill="none" xmlns="http://www.w3.org/2000/svg"><path d="M13 0a12.77 12.77 0 00-7.222 2.247A13.265 13.265 0 00.99 8.23a13.649 13.649 0 00-.74 7.703 13.44 13.44 0 003.558 6.826 12.903 12.903 0 006.656 3.649 12.7 12.7 0 007.51-.759 13.077 13.077 0 005.835-4.91A13.575 13.575 0 0026 13.332c-.004-3.535-1.375-6.923-3.812-9.423S16.447.004 13 0zm0 24.886c-2.228 0-4.407-.677-6.26-1.947a11.497 11.497 0 01-4.149-5.185 11.829 11.829 0 01-.641-6.676 11.649 11.649 0 013.083-5.916A11.183 11.183 0 0110.802 2a11.006 11.006 0 016.51.657 11.333 11.333 0 015.056 4.256 11.765 11.765 0 011.899 6.419c0 3.064-1.187 6.003-3.3 8.17A11.126 11.126 0 0113 24.886z" fill="#C93131"/><path d="M13 6.518a.9.9 0 00-.254-.629.856.856 0 00-.613-.26.86.86 0 00-.613.26.9.9 0 00-.254.629v8a.9.9 0 00.254.628.86.86 0 00.613.26h8.089a.86.86 0 00.613-.26.9.9 0 00.254-.629.9.9 0 00-.254-.628.856.856 0 00-.613-.26H13V6.517z" fill="#C93131"/></svg>