<svg width="15" height="15" fill="none" xmlns="http://www.w3.org/2000/svg"><path d="M14.428 10.987c-.256-.201-.567-.329-.841-.456-.896-.365-1.811-.602-2.598-.785-.274-.055-.658-.164-1.042-.018-.293.11-.476.328-.64.529-.055.073-.129.146-.183.219-.147.146-.55.073-1.043-.2-.567-.293-1.244-.822-1.884-1.46-.64-.639-1.17-1.314-1.464-1.88-.274-.492-.347-.893-.2-1.04.054-.054.127-.109.219-.181.2-.165.42-.347.53-.639.147-.383.037-.784-.018-1.04-.183-.784-.42-1.696-.787-2.59a3.132 3.132 0 00-.457-.84c-.256-.31-.567-.528-.915-.583C2.63-.068 2.1.114 1.57.57A4.22 4.22 0 00.563 1.83c-.256.492-.44.985-.512 1.514-.183 1.24.128 2.609.97 4.196a15.91 15.91 0 002.706 3.721v.018a15.847 15.847 0 003.714 2.7C8.739 14.653 9.89 15 10.953 15c.238 0 .475-.018.695-.055a4.529 4.529 0 001.518-.51 4.782 4.782 0 001.262-1.004c.458-.51.64-1.04.55-1.532-.02-.347-.239-.675-.55-.912z" fill="#fff"/></svg>