<svg width="15" height="12" fill="none" xmlns="http://www.w3.org/2000/svg"><path d="M7.254 1.215v7.394c0 .29.467.29.467 0V1.215c0-.287-.467-.287-.467 0z" fill="#fff" stroke="#fff" stroke-width=".5"/><path d="M4.647 6.492c.78.678 1.562 1.359 2.346 2.037.112.096.22.191.333.287a.248.248 0 00.33 0c.78-.678 1.561-1.36 2.345-2.037l.333-.287c.224-.194-.109-.51-.33-.316-.78.677-1.561 1.358-2.345 2.036-.112.096-.221.192-.333.287h.33C6.874 7.821 6.093 7.14 5.31 6.462l-.333-.286c-.221-.195-.554.122-.33.316z" fill="#fff" stroke="#fff" stroke-width=".5"/><path d="M1.004 7.862v1.875c0 .23-.01.46 0 .69.013.34.286.562.632.568 1.001.012 2.003 0 3.005 0h8.533c.09 0 .184.006.274-.01a.582.582 0 00.486-.558c.003-.077 0-.152 0-.23V7.865c0-.29-.467-.29-.467 0v1.792c0 .248.028.51 0 .758-.013.126-.097.132-.202.132H1.823c-.072 0-.153.009-.225 0-.18-.024-.124-.281-.124-.407V7.863c-.003-.287-.47-.29-.47 0z" fill="#fff" stroke="#fff" stroke-width=".5"/></svg>