<svg width="21" height="19" fill="none" xmlns="http://www.w3.org/2000/svg"><path d="M6.068 0c-1.214 0-2.245.82-2.58 1.942H.729C.303 1.942 0 2.275 0 2.7s.334.758.758.758H3.52C3.823 4.582 4.884 5.4 6.098 5.4a2.712 2.712 0 002.609-1.942h11.195a.751.751 0 00.758-.758.751.751 0 00-.758-.758H8.707C8.343.819 7.31 0 6.067 0zm.03 1.517c.637 0 1.183.516 1.183 1.183s-.546 1.183-1.183 1.183A1.185 1.185 0 014.915 2.7c0-.667.546-1.183 1.183-1.183zM15.2 6.068a2.704 2.704 0 00-2.58 1.941H.758c-.455 0-.758.334-.758.759 0 .424.334.758.758.758h11.863c.303 1.123 1.365 1.942 2.578 1.942 1.244 0 2.275-.82 2.61-1.942h2.093a.751.751 0 00.758-.758.751.751 0 00-.758-.759h-2.094A2.712 2.712 0 0015.2 6.068zm.03 1.516a1.185 1.185 0 010 2.366 1.185 1.185 0 01-1.184-1.182c0-.668.516-1.184 1.184-1.184zm-5.522 5.158c-1.213 0-2.245.819-2.579 1.941H.76c-.456 0-.759.334-.759.759s.334.758.758.758H7.16c.303 1.123 1.365 1.942 2.578 1.942 1.244 0 2.276-.82 2.61-1.942h7.554a.751.751 0 00.758-.758.751.751 0 00-.758-.758h-7.585a2.712 2.712 0 00-2.609-1.942zm.03 1.517c.638 0 1.184.515 1.184 1.183a1.185 1.185 0 01-2.366 0c.03-.668.545-1.183 1.182-1.183z" fill="#A4A4A4"/></svg>