<svg width="22" height="17" fill="none" xmlns="http://www.w3.org/2000/svg"><path fill-rule="evenodd" clip-rule="evenodd" d="M19.256 4.207c.008.183.012.368.012.554 0 5.638-4.244 12.136-12.01 12.136-2.383 0-4.602-.704-6.469-1.915a8.453 8.453 0 006.249-1.766c-1.847-.035-3.406-1.268-3.943-2.964a4.208 4.208 0 001.906-.072C3.07 9.79 1.616 8.066 1.616 5.998v-.054a4.17 4.17 0 001.911.533 4.276 4.276 0 01-1.877-3.55c0-.782.208-1.516.571-2.146 2.081 2.582 5.192 4.28 8.7 4.46a4.305 4.305 0 01-.11-.974c0-2.355 1.89-4.266 4.22-4.266a4.2 4.2 0 013.082 1.347A8.37 8.37 0 0020.793.31a4.277 4.277 0 01-1.858 2.361A8.32 8.32 0 0021.36 2a8.542 8.542 0 01-2.104 2.206z" fill="#fff"/></svg>