<svg width="23" height="14" fill="none" xmlns="http://www.w3.org/2000/svg"><path fill-rule="evenodd" clip-rule="evenodd" d="M19.749 8.408c.754.756 1.553 1.468 2.23 2.302.3.37.583.751.799 1.18.307.613.03 1.284-.505 1.32h-3.317c-.857.072-1.538-.282-2.113-.883-.459-.479-.884-.99-1.326-1.486a3.13 3.13 0 00-.598-.545c-.452-.302-.845-.21-1.104.275-.264.494-.324 1.04-.35 1.59-.035.802-.271 1.011-1.056 1.05-1.677.08-3.268-.181-4.747-1.049-1.304-.765-2.314-1.845-3.194-3.068C2.755 6.711 1.442 4.095.263 1.404-.002.798.193.474.843.46a89.954 89.954 0 013.25 0c.44.007.732.266.901.692.585 1.477 1.302 2.882 2.201 4.186.24.347.484.693.832.938.384.27.677.181.858-.26.116-.279.166-.578.192-.878.086-1.027.096-2.053-.053-3.076-.093-.64-.444-1.053-1.065-1.174C7.64.826 7.688.706 7.84.52 8.11.2 8.36 0 8.86 0h3.747c.591.119.724.39.804 1.001l.003 4.274c-.007.236.116.936.529 1.09.331.113.55-.16.748-.375.899-.978 1.54-2.133 2.113-3.329.253-.527.471-1.073.683-1.62.158-.403.403-.602.847-.595l3.61.004c.106 0 .214.001.319.02.608.106.775.375.587.984-.297.956-.872 1.753-1.434 2.552-.603.855-1.246 1.68-1.843 2.54-.549.785-.506 1.18.176 1.862z" fill="#fff"/></svg>