<svg width="36" height="33" fill="none" xmlns="http://www.w3.org/2000/svg"><path d="M18 32.625c-.3-.047-.59-.12-.801-.336L11.99 27H2.811A2.814 2.814 0 010 24.19V2.81A2.815 2.815 0 012.811 0H33.19A2.814 2.814 0 0136 2.811V24.19A2.814 2.814 0 0133.19 27h-9.1l-5.295 5.295c-.21.212-.497.33-.795.33z" fill="#D3C9BE"/><path d="M17.93 20.25a1.125 1.125 0 100-2.25 1.125 1.125 0 000 2.25zm0-3.375a1.125 1.125 0 01-1.124-1.125c0-1.497 1.324-2.637 2.619-3.555.402-.286.847-1.232.598-2.008-.246-.766-1.22-1.223-2.02-1.223H18c-.877 0-1.966.408-2.39 1.551a1.127 1.127 0 01-1.447.663 1.122 1.122 0 01-.664-1.445c.68-1.832 2.447-3.018 4.5-3.018h.003c1.624 0 3.576.956 4.163 2.786.567 1.767-.306 3.728-1.44 4.531-1.507 1.068-1.67 1.558-1.67 1.72a1.127 1.127 0 01-1.125 1.123z" fill="#fff"/></svg>