<svg width="16" height="19" fill="none" xmlns="http://www.w3.org/2000/svg"><path d="M8.08.727c-2.474 0-4.478 2.035-4.478 4.546v2.48h-1.22c-.67 0-1.222.56-1.222 1.24v7.44c0 .68.552 1.24 1.221 1.24H13.78c.67 0 1.221-.56 1.221-1.24v-7.44c0-.68-.552-1.24-1.221-1.24h-1.221v-2.48c0-2.511-2.005-4.546-4.478-4.546zm0 .827c2.037 0 3.663 1.651 3.663 3.72v2.48H4.416v-2.48c0-2.069 1.627-3.72 3.664-3.72zM2.381 8.58H13.78a.4.4 0 01.407.413v7.44a.4.4 0 01-.407.413H2.38a.4.4 0 01-.407-.413v-7.44a.4.4 0 01.407-.413z" fill="#fff" stroke="#fff"/><circle cx="8" cy="12" r="1" fill="#fff"/></svg>