<svg width="18" height="18" fill="none" xmlns="http://www.w3.org/2000/svg"><path d="M17.7 16.296l-4.413-4.42a7.367 7.367 0 00-.666-9.703A7.332 7.332 0 007.392 0a7.332 7.332 0 00-5.228 2.173 7.413 7.413 0 000 10.469 7.332 7.332 0 005.228 2.173 7.268 7.268 0 004.464-1.506l4.44 4.395a.987.987 0 00.714.296c.247 0 .518-.099.716-.296.37-.37.37-1.013-.025-1.408zM7.418 12.815c-1.455 0-2.787-.568-3.823-1.58-2.096-2.1-2.096-5.531 0-7.655A5.368 5.368 0 017.417 2c1.455 0 2.787.568 3.822 1.58 1.036 1.013 1.579 2.37 1.579 3.827 0 1.457-.567 2.79-1.579 3.828-1.01 1.037-2.392 1.58-3.822 1.58z" fill="#fff"/></svg>