<svg width="42" height="38" fill="none" xmlns="http://www.w3.org/2000/svg"><path d="M33.336 19.917a.653.653 0 00.648-.653v-.789h3.623a.32.32 0 00.32-.32v-1.927a.32.32 0 00-.32-.32H3.127a.324.324 0 00-.324.32v1.928a.324.324 0 00.324.32h3.066v.788a.653.653 0 00.653.653h.381v7.114h-.38a.653.653 0 00-.654.652v1.288a.653.653 0 00.653.653h4.293a.653.653 0 00.649-.653v-1.288a.653.653 0 00-.649-.652h-.381v-7.114h.381a.653.653 0 00.649-.653v-.789h6.05v.789a.652.652 0 00.674.653h.38v7.114h-.38a.653.653 0 00-.653.652v1.288a.653.653 0 00.653.653h4.293a.653.653 0 00.648-.653v-1.288a.653.653 0 00-.648-.652h-.381v-7.114h.38a.653.653 0 00.65-.653v-.789h4.936v.789a.653.653 0 00.635.653h.382v7.114h-.382a.653.653 0 00-.652.652v1.288a.653.653 0 00.652.653h4.294a.653.653 0 00.648-.653v-1.288a.653.653 0 00-.648-.652h-.35v-7.114h.367zm6.387-5.914v-.833a.337.337 0 00-.15-.28L20.738.059a.337.337 0 00-.381 0L1.493 12.869a.337.337 0 00-.15.275v.876a.342.342 0 00.338.338h37.704a.34.34 0 00.338-.355zM38.577 30.71H2.835a.53.53 0 00-.53.53v1.503c0 .293.237.53.53.53h35.742a.53.53 0 00.53-.53v-1.502a.53.53 0 00-.53-.53zm2.159 3.64H.67a.67.67 0 00-.67.671v2.309c0 .37.3.67.67.67h40.066c.37 0 .67-.3.67-.67v-2.31c0-.37-.3-.67-.67-.67z" fill="#D3C9BE"/></svg>