<svg width="13" height="14" fill="none" xmlns="http://www.w3.org/2000/svg"><path d="M11.546 6.726v3.027c0 .202.006.404-.02.605l.026-.194a2.3 2.3 0 01-.154.564c.024-.058.05-.116.072-.173a2.288 2.288 0 01-.287.493l.113-.147c-.116.15-.251.285-.4.4l.146-.113a2.265 2.265 0 01-.492.288l.172-.073c-.18.076-.369.127-.563.154l.193-.026c-.304.04-.62.02-.925.02H3.738c-.264 0-.529.002-.791 0a2.36 2.36 0 01-.303-.02l.194.026a2.301 2.301 0 01-.564-.154l.173.073a2.286 2.286 0 01-.493-.288l.147.114a2.277 2.277 0 01-.4-.401l.112.147a2.263 2.263 0 01-.287-.493l.073.173a2.28 2.28 0 01-.154-.564l.026.194c-.04-.304-.02-.62-.02-.926V3.743c0-.263-.002-.528 0-.79 0-.102.007-.203.02-.303l-.026.193a2.3 2.3 0 01.154-.563l-.073.173c.075-.176.171-.342.287-.493-.037.05-.075.097-.113.147.116-.15.251-.285.401-.401l-.147.113c.153-.116.317-.213.493-.287l-.173.072a2.32 2.32 0 01.564-.154l-.194.026c.176-.023.353-.02.53-.02h3.102a.756.756 0 00.514-.212.734.734 0 00.212-.514C6.993.542 6.932.348 6.79.216a.753.753 0 00-.514-.213H2.96c-.477 0-.932.117-1.357.326A2.937 2.937 0 000 2.95c-.002.203 0 .407 0 .611v6.496c.001.513.136 1.027.392 1.471a2.978 2.978 0 002.556 1.476c.226.002.45 0 .676 0H9.9c.064 0 .13.002.193 0a2.938 2.938 0 001.552-.467c.44-.292.825-.696 1.05-1.179A3.09 3.09 0 0013 10.039V6.727a.756.756 0 00-.212-.515.734.734 0 00-.514-.212c-.188.009-.382.07-.514.212a.748.748 0 00-.214.513zM9.047 1.455h3.225a.756.756 0 00.514-.212.734.734 0 00.212-.515.739.739 0 00-.212-.514.754.754 0 00-.514-.212H9.047a.756.756 0 00-.514.212.734.734 0 00-.212.514c.009.188.07.382.212.515a.763.763 0 00.514.212z" fill="#DB4028"/><path d="M12.998 3.953V.728a.756.756 0 00-.213-.514.734.734 0 00-.514-.212c-.187.009-.382.07-.514.212a.754.754 0 00-.212.514v3.225c0 .186.081.382.212.514a.73.73 0 00.514.212.737.737 0 00.514-.212.763.763 0 00.213-.514z" fill="#DB4028"/><path d="M7.024 7.004l.576-.577 1.375-1.374 1.661-1.662 1.441-1.441c.233-.232.47-.463.699-.699l.01-.01a.747.747 0 00.212-.514.74.74 0 00-.212-.514c-.138-.127-.32-.221-.514-.212a.763.763 0 00-.514.212l-.577.576-1.374 1.374-1.662 1.662-1.44 1.441c-.233.233-.47.464-.7.699l-.01.01a.747.747 0 00-.212.514c0 .179.079.391.212.515.138.126.32.22.514.212a.75.75 0 00.515-.212z" fill="#DB4028"/></svg>